<svg width="588" height="381" viewBox="0 0 588 381" fill="none" xmlns="http://www.w3.org/2000/svg">
    <path d="M2 2H586V379H2V2Z" fill="#111110" stroke="#C7C7C7" stroke-width="4"/>
    <circle cx="220.5" cy="190.5" r="160.5" fill="#302D2C"/>
    <circle cx="220" cy="189" r="98" fill="#4B4B4A"/>
    <circle cx="221.5" cy="188.5" r="43.5" fill="#AAAAAA"/>
    <path d="M396.395 255C477.547 253.5 529.58 167.5 584 210V320H4V197C12.4335 216.333 39.6115 255 80.856 255C132.412 255 171.078 190 226.93 190C282.782 190 315.243 256.5 396.395 255Z" fill="#403F3F"/>
    <path d="M191.605 312C110.453 310.5 58.4198 224.5 4 267V377H584V254C575.567 273.333 548.388 312 507.144 312C455.588 312 416.922 247 361.07 247C305.218 247 272.757 313.5 191.605 312Z" fill="#707070"/>
</svg>
